<svg xmlns="http://www.w3.org/2000/svg" viewBox="0 0 15 15"><defs><style>.cls-1{fill:#bad68e;}.cls-2{fill:#1d1d1b;}</style></defs><g id="Calque_2" data-name="Calque 2"><g id="Calque_1-2" data-name="Calque 1"><circle class="cls-1" cx="7.5" cy="7.5" r="7.5"/><path class="cls-2" d="M2.36,10.8a.65.65,0,0,1-.15-.46V4.71a.63.63,0,0,1,.14-.43.54.54,0,0,1,.4-.15H4.89a2.1,2.1,0,0,1,1.53.54A2.07,2.07,0,0,1,7,6.2a2.1,2.1,0,0,1-.54,1.53,2.1,2.1,0,0,1-1.53.54H3.33v2.07a.65.65,0,0,1-.15.46.53.53,0,0,1-.41.17A.53.53,0,0,1,2.36,10.8ZM4.75,7.32C5.52,7.32,5.9,7,5.9,6.21A1,1,0,0,0,4.75,5.09H3.33V7.32Z"/><path class="cls-2" d="M12.88,10.39a.53.53,0,0,1-.16.39.48.48,0,0,1-.36.17.55.55,0,0,1-.4-.2l-2.89-3v2.59a.69.69,0,0,1-.15.46A.56.56,0,0,1,8.5,11a.53.53,0,0,1-.4-.17A.69.69,0,0,1,8,10.34V4.69a.63.63,0,0,1,.15-.44.5.5,0,0,1,.4-.17.52.52,0,0,1,.42.17.63.63,0,0,1,.15.44V7.17l2.8-2.91a.47.47,0,0,1,.35-.17.46.46,0,0,1,.36.17.56.56,0,0,1,0,.79L10.22,7.42,12.7,10A.57.57,0,0,1,12.88,10.39Z"/></g></g></svg>