<svg xmlns="http://www.w3.org/2000/svg" viewBox="0 0 15.67 15.63"><defs><style>.cls-1{fill:#bad68e;stroke:#7faa75;stroke-miterlimit:10;stroke-width:0.67px;}.cls-2{fill:#383838;}</style></defs><g id="Calque_2" data-name="Calque 2"><g id="Calque_1-2" data-name="Calque 1"><path class="cls-1" d="M.33,4.32h15a0,0,0,0,1,0,0V13.2a2.09,2.09,0,0,1-2.09,2.09H2.43A2.09,2.09,0,0,1,.33,13.2V4.32A0,0,0,0,1,.33,4.32Z"/><path class="cls-1" d="M2.43.33H13.24a2.09,2.09,0,0,1,2.09,2.09V4.32a0,0,0,0,1,0,0H.33a0,0,0,0,1,0,0V2.43A2.09,2.09,0,0,1,2.43.33Z"/><rect class="cls-2" x="2.66" y="10.96" width="10.35" height="1.09" rx="0.54"/><rect class="cls-2" x="2.66" y="7.21" width="10.35" height="1.09" rx="0.54"/></g></g></svg>