<svg xmlns="http://www.w3.org/2000/svg" viewBox="0 0 15 15"><defs><style>.cls-1{fill:#f7be3b;}.cls-2{fill:#1d1d1b;}</style></defs><g id="Calque_2" data-name="Calque 2"><g id="Calque_1-2" data-name="Calque 1"><circle class="cls-1" cx="7.5" cy="7.5" r="7.5"/><path class="cls-2" d="M5.57,11.78a3.71,3.71,0,0,1-1.5-1.61,5.36,5.36,0,0,1-.52-2.45,5.35,5.35,0,0,1,.52-2.44,3.77,3.77,0,0,1,1.5-1.61,4.53,4.53,0,0,1,2.28-.56,5.14,5.14,0,0,1,1.59.25,4.27,4.27,0,0,1,1.31.72.79.79,0,0,1,.23.27.87.87,0,0,1,.07.35.76.76,0,0,1-.16.47.44.44,0,0,1-.37.19A.93.93,0,0,1,10,5.18a4.11,4.11,0,0,0-1-.57,3.5,3.5,0,0,0-1.05-.16,2.45,2.45,0,0,0-2,.83,3.75,3.75,0,0,0-.69,2.44,3.75,3.75,0,0,0,.69,2.45,2.42,2.42,0,0,0,2,.83,3,3,0,0,0,1-.16A4.78,4.78,0,0,0,10,10.28a1.49,1.49,0,0,1,.25-.13.86.86,0,0,1,.27-.05.44.44,0,0,1,.37.19.76.76,0,0,1,.16.47.89.89,0,0,1-.07.34.73.73,0,0,1-.23.28,4.27,4.27,0,0,1-1.31.72,5.14,5.14,0,0,1-1.59.25A4.44,4.44,0,0,1,5.57,11.78Z"/></g></g></svg>