<svg xmlns="http://www.w3.org/2000/svg" viewBox="0 0 15 15"><defs><style>.cls-1{fill:#f7be3b;}.cls-2{fill:#1d1d1b;}</style></defs><g id="Calque_2" data-name="Calque 2"><g id="Calque_1-2" data-name="Calque 1"><circle class="cls-1" cx="7.5" cy="7.5" r="7.5"/><path class="cls-2" d="M2.8,11a.57.57,0,0,1-.63-.65V4.78a.57.57,0,0,1,.65-.65H6.16a.43.43,0,0,1,.49.48.43.43,0,0,1-.49.49H3.39V7H6c.34,0,.5.16.5.48S6.29,8,6,8H3.39V10.3C3.39,10.73,3.19,11,2.8,11Z"/><path class="cls-2" d="M8.15,11a.55.55,0,0,1-.61-.63V4.67a.55.55,0,0,1,.61-.62.55.55,0,0,1,.62.62V7.11h0l2.74-2.75a1.24,1.24,0,0,1,.31-.23.74.74,0,0,1,.34-.08.48.48,0,0,1,.4.15.38.38,0,0,1,.09.33.52.52,0,0,1-.18.35L10,7.37l2.65,2.69a.55.55,0,0,1,.21.4.41.41,0,0,1-.13.35.54.54,0,0,1-.4.14.58.58,0,0,1-.37-.1,2.18,2.18,0,0,1-.32-.27L8.79,7.75h0v2.57A.55.55,0,0,1,8.15,11Z"/></g></g></svg>