<svg xmlns="http://www.w3.org/2000/svg" viewBox="0 0 15.26 15.26"><defs><style>.cls-1{fill:#efefef;stroke-width:0.26px;}.cls-1,.cls-3{stroke:#1d1d1b;}.cls-1,.cls-2,.cls-3{stroke-miterlimit:10;}.cls-2{fill:#fac062;stroke:#cd923e;stroke-width:0.21px;}.cls-3{fill:none;stroke-width:0.39px;}</style></defs><g id="Calque_2" data-name="Calque 2"><g id="Calque_1-2" data-name="Calque 1"><path class="cls-1" d="M8,15.11H7.57c-1.84,0-3.58,0-5.41,0a2.73,2.73,0,0,1-1-.13,1.32,1.32,0,0,1-1-1.28V1.46C.14.71.89.13,1.88.13h11.5c1,0,1.74.58,1.74,1.34V12.06c0,.06,0,.13,0,.17-1.21,1-2.4,1.93-3.64,2.87a.14.14,0,0,1-.11,0l-3,0Z"/><rect class="cls-2" x="1.79" y="2.15" width="4.71" height="3.62" rx="0.91"/><line class="cls-3" x1="4.15" y1="5.84" x2="4.15" y2="9.42"/><line class="cls-3" x1="8.68" y1="4.08" x2="6.58" y2="4.08"/><rect class="cls-2" x="8.76" y="2.13" width="4.71" height="3.62" rx="0.91"/><rect class="cls-2" x="1.79" y="9.5" width="4.71" height="3.62" rx="0.91"/></g></g></svg>