<svg xmlns="http://www.w3.org/2000/svg" viewBox="0 0 15 11.51"><defs><style>.cls-1{fill:#f5dc2c;}.cls-2{fill:#57af34;}</style></defs><g id="Calque_2" data-name="Calque 2"><g id="Calque_1-2" data-name="Calque 1"><path class="cls-1" d="M15,3.55,13.48,5.07l-.35-.35-.29-.29a.85.85,0,0,0-1.21,0l-1,1H6.57a3.8,3.8,0,0,1-.5.69,3.59,3.59,0,0,1-3.65.85A3.68,3.68,0,0,1,1,6.07,3.6,3.6,0,0,1,1,1a3.6,3.6,0,0,1,5,0,4.44,4.44,0,0,1,1,1.6h7.05Z"/><path class="cls-2" d="M15,6.56H13.35v3.91a1,1,0,0,1-1,1H3.46a1,1,0,0,1-1-1V6.92a3.61,3.61,0,0,0,2.23,0V8.12c0,1.28,0,1.28,1.28,1.28H9.84c1.13,0,1.27,0,1.28-.86v-2H9.49l1.18-1.18,1-1a.85.85,0,0,1,1.21,0l.29.29.35.35Z"/><path class="cls-1" d="M15,3.55,13.48,5.07l-.35-.35-.29-.29a.85.85,0,0,0-1.21,0l-1,1H6.57a3.8,3.8,0,0,1-.5.69,3.59,3.59,0,0,1-3.65.85A3.68,3.68,0,0,1,1,6.07,3.6,3.6,0,0,1,1,1a3.6,3.6,0,0,1,5,0,4.44,4.44,0,0,1,1,1.6h7.05Z"/><path class="cls-2" d="M15,6.56H13.35v3.91a1,1,0,0,1-1,1H3.46a1,1,0,0,1-1-1V6.92a3.61,3.61,0,0,0,2.23,0V8.12c0,1.28,0,1.28,1.28,1.28H9.84c1.13,0,1.27,0,1.28-.86v-2H9.49l1.18-1.18,1-1a.85.85,0,0,1,1.21,0l.29.29.35.35Z"/></g></g></svg>