<svg xmlns="http://www.w3.org/2000/svg" viewBox="0 0 15 15"><defs><style>.cls-1{fill:#afb0af;}</style></defs><g id="Calque_2" data-name="Calque 2"><g id="Calque_1-2" data-name="Calque 1"><path class="cls-1" d="M14.86,6.36c-.14-.2-.27-.24-1.11-.29-.42,0-.79-.06-.83-.07s-.09-.11-.15-.28a5,5,0,0,0-.24-.6c-.09-.2-.17-.37-.17-.39s.24-.29.53-.6c.53-.59.62-.72.62-.92s0-.36-.67-1a7.56,7.56,0,0,0-.73-.67.75.75,0,0,0-.59,0,7.38,7.38,0,0,0-.68.58,7.78,7.78,0,0,1-.59.51l-.32-.15c-.17-.08-.44-.2-.61-.26S9,2.1,9,2.05s0-.41-.07-.83C8.87.37,8.84.27,8.59.11L8.45,0h-.9c-1,0-1.09,0-1.26.19S6.1.48,6.06,1.25A5.77,5.77,0,0,1,6,2.06c0,.06-.11.1-.31.17a5.64,5.64,0,0,0-.61.25.94.94,0,0,1-.37.13,7.37,7.37,0,0,1-.58-.51,6.39,6.39,0,0,0-.65-.55.73.73,0,0,0-.58,0,8.82,8.82,0,0,0-.74.69c-.55.56-.61.63-.65.78a.64.64,0,0,0,.11.55l.54.61a3,3,0,0,1,.46.57A1.44,1.44,0,0,1,2.49,5c-.06.12-.17.38-.24.56A1.6,1.6,0,0,1,2.08,6a3.53,3.53,0,0,1-.82.09c-.87,0-1,.08-1.14.31L0,6.51v.9c0,.5,0,.95,0,1a.71.71,0,0,0,.4.43,4.8,4.8,0,0,0,.87.09A5.65,5.65,0,0,1,2.07,9a1.18,1.18,0,0,1,.16.34c.06.17.17.43.24.58a1.39,1.39,0,0,1,.13.33,3.59,3.59,0,0,1-.49.6,6.66,6.66,0,0,0-.56.67.69.69,0,0,0,0,.58,14.92,14.92,0,0,0,1.39,1.37.9.9,0,0,0,.54,0,8.24,8.24,0,0,0,.66-.56,3.31,3.31,0,0,1,.62-.51,1.16,1.16,0,0,1,.33.14c.15.07.41.18.58.24S6,12.9,6,13s0,.4.07.8a5.25,5.25,0,0,0,.09.85.67.67,0,0,0,.33.35,4,4,0,0,0,1,.05,3.59,3.59,0,0,0,1-.05c.32-.16.35-.26.41-1.17C9,13.36,9,13,9,13s.08-.09.28-.16.42-.16.6-.24a2,2,0,0,1,.39-.16,4.72,4.72,0,0,1,.61.52,5.36,5.36,0,0,0,.67.55.83.83,0,0,0,.58,0,9.6,9.6,0,0,0,1.34-1.37.64.64,0,0,0,0-.54,7.29,7.29,0,0,0-.57-.68c-.27-.3-.5-.56-.5-.58a1,1,0,0,1,.14-.35,4.47,4.47,0,0,0,.25-.6A2.49,2.49,0,0,1,12.89,9l.84-.07c.93-.06,1-.08,1.15-.34L15,8.46V7.59C15,6.68,15,6.54,14.86,6.36ZM7.5,10A2.46,2.46,0,1,1,10,7.5,2.46,2.46,0,0,1,7.5,10Z"/></g></g></svg>