<svg xmlns="http://www.w3.org/2000/svg" viewBox="0 0 15.26 15.26"><defs><style>.cls-1{fill:#efefef;stroke-width:0.26px;}.cls-1,.cls-2,.cls-3{stroke:#1d1d1b;stroke-miterlimit:10;}.cls-2{fill:#95d5f0;}.cls-2,.cls-3{stroke-width:0.39px;}.cls-3{fill:none;}</style></defs><g id="Calque_2" data-name="Calque 2"><g id="Calque_1-2" data-name="Calque 1"><path class="cls-1" d="M8,15.11H7.56c-1.83,0-3.57,0-5.4,0a2.73,2.73,0,0,1-1-.13,1.32,1.32,0,0,1-1-1.28V1.46C.14.71.89.13,1.88.13h11.5c1,0,1.74.58,1.74,1.34V12.06c0,.06,0,.13,0,.17-1.21,1-2.4,1.93-3.64,2.87a.14.14,0,0,1-.11,0l-3,0Z"/><rect class="cls-2" x="8.39" y="2.5" width="5.16" height="3.38" rx="0.06"/><rect class="cls-2" x="1.44" y="9.37" width="5.16" height="3.38" rx="0.06"/><rect class="cls-2" x="1.44" y="2.5" width="5.16" height="3.38" rx="0.06"/><line class="cls-3" x1="4.02" y1="5.89" x2="4.02" y2="9.37"/><line class="cls-3" x1="8.28" y1="4.19" x2="6.6" y2="4.19"/></g></g></svg>