<?xml version="1.0" encoding="utf-8"?>
<!-- Generator: Adobe Illustrator 27.1.1, SVG Export Plug-In . SVG Version: 6.00 Build 0)  -->
<svg version="1.1" id="Calque_1" xmlns="http://www.w3.org/2000/svg" xmlns:xlink="http://www.w3.org/1999/xlink" x="0px" y="0px"
	 viewBox="0 0 15.7 15.7" style="enable-background:new 0 0 15.7 15.7;" xml:space="preserve">
<style type="text/css">
	.st0{fill:#95D5F0;stroke:#1D1D1B;stroke-width:0.67;stroke-miterlimit:10;}
	.st1{fill:#383838;}
</style>
<g id="Calque_2_00000117648881786071740750000002890367373814423471_">
	<g id="Calque_1-2">
		<path class="st0" d="M2.4,0.3h10.8c1.2,0,2.1,0.9,2.1,2.1c0,0,0,0,0,0v2l0,0h-15l0,0v-2C0.3,1.3,1.3,0.3,2.4,0.3
			C2.4,0.3,2.4,0.3,2.4,0.3z"/>
		<path class="st0" d="M0.3,4.4h15l0,0v8.9c0,1.2-0.9,2.1-2.1,2.1l0,0H2.4c-1.2,0-2.1-0.9-2.1-2.1l0,0V4.4L0.3,4.4z"/>
		<path class="st1" d="M3.2,11.2h9.3c0.3,0,0.5,0.2,0.5,0.5v0c0,0.3-0.2,0.5-0.5,0.5H3.2c-0.3,0-0.5-0.2-0.5-0.5v0
			C2.7,11.4,2.9,11.2,3.2,11.2z"/>
		<path class="st1" d="M3.2,7.4h9.3C12.8,7.4,13,7.7,13,8v0c0,0.3-0.2,0.5-0.5,0.5H3.2C2.9,8.5,2.7,8.3,2.7,8v0
			C2.7,7.7,2.9,7.4,3.2,7.4z"/>
	</g>
</g>
</svg>
