<?xml version="1.0" encoding="utf-8"?>
<!-- Generator: Adobe Illustrator 26.3.1, SVG Export Plug-In . SVG Version: 6.00 Build 0)  -->
<svg version="1.1" id="Calque_1" xmlns="http://www.w3.org/2000/svg" xmlns:xlink="http://www.w3.org/1999/xlink" x="0px" y="0px"
	 viewBox="0 0 50 50" style="enable-background:new 0 0 50 50;" xml:space="preserve">
<style type="text/css">
	.st0{fill:#FFFFFF;}
	.st1{fill:#008AC9;}
</style>
<rect x="14.8" y="11" class="st0" width="18.8" height="29.9"/>
<path class="st1" d="M25,2C12.3,2,2,12.3,2,25s10.3,23,23,23s23-10.3,23-23S37.7,2,25,2z M25,11c1.7,0,3,1.3,3,3s-1.3,3-3,3
	s-3-1.3-3-3S23.3,11,25,11z M29,38h-2h-4h-2v-2h2V23h-2v-2h2h4v2v13h2V38z"/>
</svg>
